{"glyphs":{"0":{"ha":903,"x_min":0,"x_max":0,"o":"m 819 479 b 451 -21 819 182 681 -21 b 83 479 222 -21 83 182 b 451 979 83 776 222 979 b 819 479 681 979 819 776 m 681 479 b 451 882 681 738 596 882 b 222 479 307 882 222 738 b 451 76 222 221 307 76 b 681 479 596 76 681 221 "},"1":{"ha":553,"x_min":0,"x_max":0,"o":"m 303 835 l 103 651 l 42 718 l 303 958 l 442 958 l 442 0 l 303 0 "},"2":{"ha":785,"x_min":0,"x_max":0,"o":"m 392 979 b 674 719 556 979 674 869 b 458 350 674 560 535 422 l 215 118 l 701 118 l 701 0 l 99 0 l 99 132 l 318 350 b 533 710 436 468 533 581 b 376 876 533 806 463 876 b 158 731 272 876 218 822 l 83 778 b 392 979 140 883 226 979 "},"3":{"ha":776,"x_min":0,"x_max":0,"o":"m 567 285 b 349 489 567 407 469 489 b 253 460 308 489 272 474 l 251 458 l 247 456 l 188 524 l 536 840 l 111 840 l 111 958 l 658 958 l 658 826 l 374 569 b 404 574 382 572 392 574 b 707 285 571 574 707 451 b 364 -21 707 107 553 -21 b 42 181 199 -21 100 68 l 119 229 b 356 82 179 138 244 82 b 567 285 472 82 567 164 "},"4":{"ha":804,"x_min":0,"x_max":0,"o":"m 42 365 l 482 958 l 621 958 l 621 365 l 749 365 l 749 272 l 621 272 l 621 0 l 482 0 l 482 272 l 42 272 m 482 365 l 482 799 l 160 365 "},"5":{"ha":782,"x_min":0,"x_max":0,"o":"m 658 840 l 269 840 l 229 564 b 407 621 269 600 333 621 b 713 306 571 621 713 499 b 392 -21 713 128 563 -21 b 69 181 226 -21 128 68 l 147 229 b 383 82 207 138 272 82 b 572 306 500 82 572 188 b 385 531 572 424 504 531 b 213 447 317 531 247 504 l 118 482 l 188 958 l 658 958 "},"6":{"ha":846,"x_min":0,"x_max":0,"o":"m 467 979 b 721 892 569 979 647 953 l 664 818 b 479 876 611 856 551 876 b 213 479 318 876 224 711 b 443 621 257 558 332 621 b 763 299 625 621 763 485 b 433 -21 763 117 621 -21 b 83 438 246 -21 83 103 b 467 979 83 768 251 979 m 435 531 b 247 299 319 531 247 432 b 435 69 247 165 319 69 b 622 299 550 69 622 165 b 435 531 622 432 550 531 "},"7":{"ha":749,"x_min":0,"x_max":0,"o":"m 221 0 b 576 840 221 375 424 743 l 56 840 l 56 958 l 693 958 l 693 826 b 375 0 526 729 375 375 "},"8":{"ha":833,"x_min":0,"x_max":0,"o":"m 121 728 b 417 981 121 878 261 981 b 713 728 572 981 713 878 b 579 514 713 635 658 558 b 750 263 681 468 750 381 b 417 -21 750 88 600 -21 b 83 263 233 -21 83 88 b 253 514 83 381 151 468 b 121 728 175 558 121 635 m 221 263 b 417 68 221 146 310 68 b 611 263 524 68 611 146 b 417 458 611 379 524 458 b 221 263 310 458 221 379 m 257 728 b 417 553 257 635 328 553 b 576 728 506 553 576 635 b 417 893 576 821 506 893 b 257 728 328 893 257 821 "},"9":{"ha":846,"x_min":0,"x_max":0,"o":"m 379 -21 b 92 97 261 -21 175 15 l 151 165 b 367 82 213 113 279 82 b 632 478 528 82 622 247 b 403 338 589 399 513 338 b 83 660 221 338 83 474 b 413 979 83 842 225 979 b 763 521 600 979 763 856 b 379 -21 763 190 594 -21 m 411 428 b 599 650 524 428 594 521 l 599 660 b 411 889 599 793 526 889 b 224 660 296 889 224 793 b 411 428 224 526 296 428 "},"\u0000":{"ha":0,"x_min":0,"x_max":0,"o":""},"\r":{"ha":389,"x_min":0,"x_max":0,"o":""}," ":{"ha":375,"x_min":0,"x_max":0,"o":""},"o":{"ha":806,"x_min":0,"x_max":0,"o":"m 403 72 b 604 340 535 72 604 185 b 403 608 604 494 535 608 b 201 340 271 608 201 494 b 403 72 201 185 271 72 m 56 340 b 403 701 56 540 199 701 b 750 340 607 701 750 540 b 403 -21 750 140 607 -21 b 56 340 199 -21 56 140 "},"n":{"ha":814,"x_min":0,"x_max":0,"o":"m 578 413 b 414 597 578 524 511 597 b 250 421 332 597 254 526 l 250 0 l 111 0 l 111 681 l 250 681 l 250 567 b 458 694 289 644 365 694 b 717 424 596 694 717 611 l 717 0 l 578 0 "},"b":{"ha":833,"x_min":0,"x_max":0,"o":"m 111 1014 l 250 1014 l 250 575 b 472 701 282 646 375 701 b 778 340 660 701 778 540 b 472 -21 778 140 646 -21 b 250 108 375 -21 279 38 l 243 0 l 111 0 m 438 78 b 632 340 560 78 632 185 b 438 603 632 494 560 603 b 243 340 315 603 243 494 b 438 78 243 185 315 78 "},"m":{"ha":1281,"x_min":0,"x_max":0,"o":"m 579 413 b 414 597 579 524 511 597 b 250 421 332 597 254 526 l 250 0 l 111 0 l 111 681 l 250 681 l 250 567 b 458 694 289 644 365 694 b 692 554 558 694 649 650 b 925 694 728 632 815 694 b 1183 424 1063 694 1183 611 l 1183 0 l 1044 0 l 1046 413 b 881 597 1046 524 978 597 b 717 421 799 597 721 526 l 717 0 l 578 0 "},"H":{"ha":1021,"x_min":0,"x_max":0,"o":"m 750 458 l 271 458 l 271 0 l 125 0 l 125 986 l 271 986 l 271 556 l 750 556 l 750 986 l 896 986 l 896 0 l 750 0 "},"a":{"ha":739,"x_min":0,"x_max":0,"o":"m 503 413 b 340 613 503 524 468 613 b 163 504 256 613 207 572 l 85 546 b 371 701 143 653 243 701 b 642 424 528 701 642 604 l 642 0 l 510 0 l 503 104 b 293 -21 468 44 421 -21 b 56 169 154 -21 56 56 b 475 403 56 322 179 403 l 503 403 m 503 331 l 475 331 b 192 183 256 331 192 263 b 321 68 192 113 242 68 b 503 257 404 68 503 146 "},"O":{"ha":1128,"x_min":0,"x_max":0,"o":"m 69 494 b 563 1007 69 778 272 1007 b 1058 494 856 1007 1058 778 b 563 -21 1058 208 856 -21 b 69 494 272 -21 69 208 m 563 78 b 907 494 763 78 907 247 b 563 908 907 736 758 908 b 222 494 371 908 222 736 b 563 78 222 247 367 78 "},"u":{"ha":819,"x_min":0,"x_max":0,"o":"m 236 268 b 403 83 236 157 306 83 b 569 268 486 83 569 157 l 569 681 l 708 681 l 708 0 l 569 0 l 569 114 b 358 -14 529 36 451 -14 b 97 257 221 -14 97 69 l 97 681 l 236 681 "},"r":{"ha":561,"x_min":0,"x_max":0,"o":"m 250 0 l 111 0 l 111 681 l 250 681 l 250 567 b 439 694 286 640 351 694 b 561 656 483 694 526 679 l 497 549 b 386 583 464 569 432 583 b 250 413 313 583 250 524 "},"e":{"ha":744,"x_min":0,"x_max":0,"o":"m 201 324 b 403 72 206 158 289 72 b 590 149 472 72 543 100 l 646 83 b 404 -21 582 19 499 -21 b 56 340 197 -21 56 142 b 388 701 56 539 188 701 b 696 354 578 701 696 554 b 693 324 696 354 696 333 m 383 613 b 204 403 285 613 219 538 l 557 403 b 383 613 543 538 482 613 "},"t":{"ha":522,"x_min":0,"x_max":0,"o":"m 35 681 l 160 681 l 160 861 l 299 861 l 299 681 l 451 681 l 451 590 l 299 590 l 299 185 b 376 90 299 129 335 90 b 451 108 406 90 431 100 l 485 36 b 324 -7 432 4 386 -7 b 160 185 228 -7 160 69 l 160 590 l 35 590 "},"v":{"ha":685,"x_min":0,"x_max":0,"o":"m 399 0 l 293 0 l 28 681 l 176 681 l 368 164 l 560 681 l 664 681 "},"V":{"ha":943,"x_min":0,"x_max":0,"o":"m 532 0 l 413 0 l 28 986 l 185 986 l 490 186 l 800 986 l 915 986 "},"g":{"ha":833,"x_min":0,"x_max":0,"o":"m 583 147 b 361 21 551 76 458 21 b 56 361 188 21 56 161 b 361 701 56 561 188 701 b 583 572 458 701 554 643 l 583 571 l 590 681 l 722 681 l 722 42 b 390 -285 722 -172 544 -285 b 99 -183 254 -285 167 -243 l 154 -118 b 349 -194 206 -164 279 -194 b 583 28 475 -194 583 -125 m 396 603 b 201 361 278 603 201 517 b 396 119 201 207 278 119 b 590 361 514 119 590 207 b 396 603 590 517 514 603 "},"s":{"ha":643,"x_min":0,"x_max":0,"o":"m 308 69 b 443 168 379 69 443 118 b 292 285 443 225 396 251 b 78 494 178 321 78 374 b 315 701 78 611 185 701 b 558 561 432 701 513 651 l 486 518 b 326 611 446 581 392 611 b 206 515 260 611 206 565 b 335 408 206 465 232 440 b 574 189 449 372 574 315 b 319 -21 574 69 460 -21 b 69 119 203 -21 115 29 l 142 163 b 308 69 182 100 243 69 "},"f":{"ha":503,"x_min":0,"x_max":0,"o":"m 35 681 l 160 681 l 160 750 b 400 1035 160 943 257 1035 b 503 1015 433 1035 471 1026 l 476 931 b 411 943 458 938 435 943 b 299 750 346 943 299 897 l 299 681 l 479 681 l 479 590 l 299 590 l 299 0 l 160 0 l 160 590 l 35 590 "},"p":{"ha":833,"x_min":0,"x_max":0,"o":"m 111 681 l 243 681 l 250 572 b 472 701 279 643 375 701 b 778 340 646 701 778 540 b 472 -21 778 140 660 -21 b 250 106 375 -21 282 35 l 250 -264 l 111 -264 m 438 603 b 243 340 315 603 243 496 b 438 78 243 186 315 78 b 632 340 560 78 632 186 b 438 603 632 496 560 603 "},"q":{"ha":833,"x_min":0,"x_max":0,"o":"m 722 -264 l 583 -264 l 583 106 b 361 -21 551 35 458 -21 b 56 340 178 -21 56 140 b 361 701 56 540 188 701 b 583 572 458 701 554 643 l 590 681 l 722 681 m 396 603 b 201 340 274 603 201 496 b 396 78 201 186 274 78 b 590 340 518 78 590 186 b 396 603 590 496 518 603 "},"h":{"ha":814,"x_min":0,"x_max":0,"o":"m 578 413 b 414 597 578 524 511 597 b 250 421 318 597 253 526 l 250 0 l 111 0 l 111 1014 l 250 1014 l 250 569 b 454 694 289 644 363 694 b 717 424 593 694 717 611 l 717 0 l 578 0 "},"c":{"ha":694,"x_min":0,"x_max":0,"o":"m 56 340 b 407 701 56 540 197 701 b 653 606 501 701 589 669 l 597 539 b 417 607 543 581 486 607 b 193 340 293 607 193 494 b 417 74 193 186 293 74 b 594 142 486 74 540 99 l 649 71 b 407 -21 578 7 501 -21 b 56 340 197 -21 56 140 "},"I":{"ha":396,"x_min":0,"x_max":0,"o":"m 125 986 l 271 986 l 271 0 l 125 0 "},"d":{"ha":833,"x_min":0,"x_max":0,"o":"m 583 108 b 361 -21 554 38 458 -21 b 56 340 188 -21 56 140 b 361 701 56 540 174 701 b 583 575 458 701 551 646 l 583 1014 l 722 1014 l 722 0 l 590 0 l 583 108 m 396 78 b 590 340 518 78 590 185 b 396 603 590 494 518 603 b 201 340 274 603 201 494 b 396 78 201 185 274 78 "},"T":{"ha":826,"x_min":0,"x_max":0,"o":"m 799 986 l 799 889 l 486 889 l 486 0 l 340 0 l 340 889 l 28 889 l 28 986 "},"y":{"ha":685,"x_min":0,"x_max":0,"o":"m 299 14 l 28 681 l 176 681 l 372 174 l 560 681 l 664 681 l 399 0 b 113 -285 326 -182 246 -285 b 1 -258 71 -285 24 -272 l 39 -182 b 110 -196 57 -190 89 -196 b 293 0 197 -196 247 -117 "},"j":{"ha":361,"x_min":0,"x_max":0,"o":"m 90 944 b 181 1035 90 994 131 1035 b 271 944 231 1035 271 994 b 181 854 271 894 231 854 b 90 944 131 854 90 894 m 250 0 b 10 -285 250 -193 153 -285 b -153 -235 -57 -285 -104 -268 l -111 -161 b -1 -193 -87 -175 -56 -193 b 111 0 64 -193 111 -147 l 111 681 l 250 681 "},"E":{"ha":757,"x_min":0,"x_max":0,"o":"m 125 986 l 660 986 l 660 889 l 271 889 l 271 556 l 646 556 l 646 458 l 271 458 l 271 97 l 660 97 l 660 0 l 125 0 "},"L":{"ha":729,"x_min":0,"x_max":0,"o":"m 125 986 l 271 986 l 271 97 l 660 97 l 660 0 l 125 0 "},"F":{"ha":743,"x_min":0,"x_max":0,"o":"m 125 986 l 660 986 l 660 889 l 271 889 l 271 556 l 646 556 l 646 458 l 271 458 l 271 0 l 125 0 "},"x":{"ha":688,"x_min":0,"x_max":0,"o":"m 413 360 l 674 0 l 513 0 l 331 256 l 133 0 l 14 0 l 276 332 l 25 681 l 186 681 l 358 436 l 549 681 l 667 681 "},"k":{"ha":743,"x_min":0,"x_max":0,"o":"m 413 422 l 715 0 l 551 0 l 318 325 l 250 254 l 250 0 l 111 0 l 111 1014 l 250 1014 l 250 386 l 533 681 l 660 681 "},"w":{"ha":1122,"x_min":0,"x_max":0,"o":"m 843 0 l 740 0 l 561 499 l 382 0 l 279 0 l 28 681 l 172 681 l 351 167 l 532 681 l 633 681 l 813 167 l 993 681 l 1094 681 "},"i":{"ha":361,"x_min":0,"x_max":0,"o":"m 111 681 l 250 681 l 250 0 l 111 0 m 90 944 b 181 1035 90 994 131 1035 b 271 944 231 1035 271 994 b 181 854 271 894 231 854 b 90 944 131 854 90 894 "},"l":{"ha":361,"x_min":0,"x_max":0,"o":"m 111 1014 l 250 1014 l 250 0 l 111 0 "},"A":{"ha":943,"x_min":0,"x_max":0,"o":"m 418 986 l 531 986 l 915 0 l 758 0 l 636 314 l 267 314 l 143 0 l 35 0 m 304 411 l 597 411 l 451 800 "},"C":{"ha":975,"x_min":0,"x_max":0,"o":"m 858 792 b 576 897 767 864 689 897 b 222 494 393 897 222 736 b 576 89 222 247 389 89 b 856 193 681 89 767 118 b 917 117 857 194 917 117 b 563 -21 825 31 697 -21 b 69 494 272 -21 69 208 b 563 1007 69 778 290 1007 b 919 868 697 1007 822 956 "},"z":{"ha":669,"x_min":0,"x_max":0,"o":"m 63 92 l 433 590 l 71 590 l 71 681 l 592 681 l 592 590 l 221 92 l 600 92 l 600 0 l 63 0 "},"N":{"ha":1021,"x_min":0,"x_max":0,"o":"m 896 0 l 746 0 l 236 779 l 236 0 l 125 0 l 125 986 l 275 986 l 785 207 l 785 986 l 896 986 "},"G":{"ha":1086,"x_min":0,"x_max":0,"o":"m 563 -21 b 69 494 272 -21 69 208 b 563 1007 69 778 290 1007 b 919 868 706 1007 822 956 l 858 792 b 576 897 767 864 689 897 b 222 494 379 897 222 736 b 563 85 222 247 375 85 b 875 413 744 85 875 229 l 611 413 l 611 510 l 1013 510 b 1017 449 1013 510 1017 486 b 563 -21 1017 161 828 -21 "},"B":{"ha":826,"x_min":0,"x_max":0,"o":"m 125 986 l 424 986 b 715 722 618 986 715 868 b 606 515 715 638 674 563 b 757 278 699 471 757 389 b 424 0 757 104 632 0 l 125 0 m 271 460 l 271 93 l 424 93 b 611 278 521 93 611 164 b 424 460 611 392 521 460 m 271 893 l 271 553 l 424 553 b 569 722 507 553 569 622 b 424 893 569 808 507 893 "},".":{"ha":375,"x_min":0,"x_max":0,"o":"m 97 69 b 188 160 97 119 138 160 b 278 69 238 160 278 119 b 188 -21 278 19 238 -21 b 97 69 138 -21 97 19 "},"Y":{"ha":860,"x_min":0,"x_max":0,"o":"m 361 444 l 28 986 l 185 986 l 460 544 l 718 986 l 832 986 l 507 444 l 507 0 l 361 0 "},"Z":{"ha":910,"x_min":0,"x_max":0,"o":"m 803 986 l 803 878 l 258 97 l 813 97 l 813 0 l 97 0 l 97 108 l 642 889 l 107 889 l 107 986 "},"M":{"ha":1281,"x_min":0,"x_max":0,"o":"m 1156 0 l 1010 0 l 1010 779 l 650 0 l 597 0 l 236 779 l 236 0 l 125 0 l 125 986 l 236 986 l 296 986 l 649 236 l 982 986 l 1156 986 "},"P":{"ha":813,"x_min":0,"x_max":0,"o":"m 271 403 l 271 0 l 125 0 l 125 986 l 424 986 b 757 694 618 986 757 868 b 424 403 757 521 632 403 m 271 893 l 271 497 l 424 497 b 611 693 521 497 611 575 b 424 893 611 811 521 893 "},"¨":{"ha":764,"x_min":0,"x_max":0,"o":"m 163 903 b 243 983 163 947 199 983 b 324 903 288 983 324 947 b 243 822 324 858 288 822 b 163 903 199 822 163 858 m 440 903 b 521 983 440 947 476 983 b 601 903 565 983 601 947 b 521 822 601 858 565 822 b 440 903 476 822 440 858 "},"´":{"ha":764,"x_min":0,"x_max":0,"o":"m 593 944 l 349 807 l 310 865 l 526 1043 "},"ı":{"ha":361,"x_min":0,"x_max":0,"o":"m 111 681 l 250 681 l 250 0 l 111 0 "},"˙":{"ha":764,"x_min":0,"x_max":0,"o":"m 292 944 b 382 1035 292 994 332 1035 b 472 944 432 1035 472 994 b 382 854 472 894 432 854 b 292 944 332 854 292 894 "},"D":{"ha":1031,"x_min":0,"x_max":0,"o":"m 125 986 l 468 986 b 961 494 758 986 961 778 b 468 0 961 208 758 0 l 125 0 m 271 889 l 271 97 l 454 97 b 808 494 649 97 808 247 b 454 889 808 736 644 889 "},",":{"ha":375,"x_min":0,"x_max":0,"o":"m 97 69 b 194 160 97 119 138 160 b 292 38 253 160 292 115 b 151 -200 292 -51 239 -144 l 114 -143 b 210 -14 160 -112 201 -69 b 179 -18 201 -17 188 -18 b 97 69 138 -18 97 19 "},"Q":{"ha":1128,"x_min":0,"x_max":0,"o":"m 857 74 b 563 -21 776 14 676 -21 b 69 494 272 -21 69 208 b 563 1007 69 778 272 1007 b 1058 494 856 1007 1058 778 b 933 143 1058 358 1013 235 l 1038 39 l 964 -33 m 563 78 b 774 157 643 78 717 106 l 614 317 l 688 389 l 840 236 b 907 494 882 304 907 393 b 563 908 907 736 757 908 b 222 494 372 908 222 736 b 563 78 222 247 368 78 "},"J":{"ha":719,"x_min":0,"x_max":0,"o":"m 594 319 b 313 -21 594 82 475 -21 b 42 131 176 -21 104 33 l 124 183 b 297 76 176 110 214 76 b 449 292 392 76 449 150 l 449 986 l 594 986 "},"K":{"ha":876,"x_min":0,"x_max":0,"o":"m 444 586 l 863 0 l 693 0 l 346 486 l 271 410 l 271 0 l 125 0 l 125 986 l 271 986 l 271 549 l 700 985 l 836 985 "},"R":{"ha":876,"x_min":0,"x_max":0,"o":"m 125 986 l 424 986 b 757 708 618 986 757 882 b 546 444 757 572 679 478 l 863 0 l 693 0 l 386 431 l 271 431 l 271 0 l 125 0 m 271 893 l 271 524 l 424 524 b 611 708 521 524 611 590 b 424 893 611 826 521 893 "},"U":{"ha":958,"x_min":0,"x_max":0,"o":"m 257 381 b 500 90 257 214 347 90 b 743 381 653 90 743 214 l 743 986 l 854 986 l 854 374 b 482 -21 854 151 718 -21 b 111 374 246 -21 111 151 l 111 986 l 257 986 "},"W":{"ha":1451,"x_min":0,"x_max":0,"o":"m 28 986 l 185 986 l 436 186 l 689 986 l 804 986 l 1056 186 l 1308 986 l 1424 986 l 1096 0 l 976 0 l 725 750 l 476 0 l 357 0 "},"X":{"ha":861,"x_min":0,"x_max":0,"o":"m 504 517 l 833 0 l 665 0 l 419 390 l 160 0 l 28 0 l 358 488 l 42 986 l 210 986 l 443 614 l 692 986 l 819 986 "},"S":{"ha":767,"x_min":0,"x_max":0,"o":"m 385 -21 b 56 179 219 -21 114 67 l 138 232 b 375 83 189 149 275 83 b 569 225 474 83 569 146 b 388 426 569 313 511 374 l 319 456 b 72 726 168 521 72 597 b 378 1007 72 889 213 1007 b 697 808 543 1007 639 921 l 615 756 b 388 903 564 839 488 903 b 210 756 289 903 210 839 b 375 588 210 682 275 628 l 443 560 b 711 258 603 494 711 401 b 385 -21 711 88 556 -21 "},"!":{"ha":431,"x_min":0,"x_max":0,"o":"m 132 986 l 299 986 l 257 282 l 174 282 m 125 69 b 215 160 125 119 165 160 b 306 69 265 160 306 119 b 215 -21 306 19 265 -21 b 125 69 165 -21 125 19 "},"á":{"ha":736,"x_min":0,"x_max":0,"o":"m 500 413 b 338 613 500 524 465 613 b 160 504 253 613 204 572 l 82 546 b 368 701 140 653 240 701 b 639 424 525 701 639 604 l 639 0 l 507 0 l 500 104 b 290 -21 465 44 418 -21 b 53 169 151 -21 53 56 b 472 403 53 322 176 403 l 500 403 m 500 331 l 472 331 b 189 183 253 331 189 263 b 318 68 189 113 239 68 b 500 257 401 68 500 146 m 538 944 l 293 807 l 254 865 l 471 1043 "},"é":{"ha":744,"x_min":0,"x_max":0,"o":"m 201 324 b 403 72 206 158 289 72 b 590 149 472 72 543 100 l 646 83 b 404 -21 582 19 499 -21 b 56 340 197 -21 56 142 b 388 701 56 539 188 701 b 696 354 578 701 696 554 b 693 324 696 354 696 333 m 383 613 b 204 403 285 613 219 538 l 557 403 b 383 613 543 538 482 613 m 556 944 l 311 807 l 272 865 l 489 1043 "},"í":{"ha":361,"x_min":0,"x_max":0,"o":"m 111 681 l 250 681 l 250 0 l 111 0 m 350 944 l 106 807 l 67 865 l 283 1043 "},"ó":{"ha":806,"x_min":0,"x_max":0,"o":"m 403 72 b 604 340 535 72 604 185 b 403 608 604 494 535 608 b 201 340 271 608 201 494 b 403 72 201 185 271 72 m 56 340 b 403 701 56 540 199 701 b 750 340 607 701 750 540 b 403 -21 750 140 607 -21 b 56 340 199 -21 56 140 m 572 944 l 328 807 l 289 865 l 506 1043 "},"ú":{"ha":819,"x_min":0,"x_max":0,"o":"m 236 268 b 403 83 236 157 306 83 b 569 268 486 83 569 157 l 569 681 l 708 681 l 708 0 l 569 0 l 569 114 b 358 -14 529 36 451 -14 b 97 257 221 -14 97 69 l 97 681 l 236 681 m 579 944 l 335 807 l 296 865 l 513 1043 "},"ü":{"ha":819,"x_min":0,"x_max":0,"o":"m 236 268 b 403 83 236 157 306 83 b 569 268 486 83 569 157 l 569 681 l 708 681 l 708 0 l 569 0 l 569 114 b 358 -14 529 36 451 -14 b 97 257 221 -14 97 69 l 97 681 l 236 681 m 190 903 b 271 983 190 947 226 983 b 351 903 315 983 351 947 b 271 822 351 858 315 822 b 190 903 226 822 190 858 m 468 903 b 549 983 468 947 504 983 b 629 903 593 983 629 947 b 549 822 629 858 593 822 b 468 903 504 822 468 858 "},"˜":{"ha":764,"x_min":0,"x_max":0,"o":"m 419 942 b 471 922 433 932 451 922 b 554 988 499 922 521 944 l 610 944 b 446 822 563 864 511 822 b 369 844 407 822 383 835 l 346 861 b 294 881 332 871 314 881 b 211 815 267 881 244 858 l 156 858 b 319 981 203 939 254 981 b 396 958 358 981 382 968 "},"ñ":{"ha":814,"x_min":0,"x_max":0,"o":"m 578 413 b 414 597 578 524 511 597 b 250 421 332 597 254 526 l 250 0 l 111 0 l 111 681 l 250 681 l 250 567 b 458 694 289 644 365 694 b 717 424 596 694 717 611 l 717 0 l 578 0 m 443 942 b 494 922 457 932 475 922 b 578 988 522 922 544 944 l 633 944 b 469 822 586 864 535 822 b 393 844 431 822 407 835 l 369 861 b 318 881 356 871 338 881 b 235 815 290 881 268 858 l 179 858 b 343 981 226 939 278 981 b 419 958 382 981 406 968 "},"`":{"ha":764,"x_min":0,"x_max":0,"o":"m 307 1043 l 524 865 l 485 807 l 240 944 "},"ì":{"ha":361,"x_min":0,"x_max":0,"o":"m 111 681 l 250 681 l 250 0 l 111 0 m 78 1043 l 294 865 l 256 807 l 11 944 "},"õ":{"ha":806,"x_min":0,"x_max":0,"o":"m 403 72 b 604 340 535 72 604 185 b 403 608 604 494 535 608 b 201 340 271 608 201 494 b 403 72 201 185 271 72 m 56 340 b 403 701 56 540 199 701 b 750 340 607 701 750 540 b 403 -21 750 140 607 -21 b 56 340 199 -21 56 140 m 439 942 b 490 922 453 932 471 922 b 574 988 518 922 540 944 l 629 944 b 465 822 582 864 531 822 b 389 844 426 822 403 835 l 365 861 b 314 881 351 871 333 881 b 231 815 286 881 264 858 l 175 858 b 339 981 222 939 274 981 b 415 958 378 981 401 968 "},"Æ":{"ha":1272,"x_min":0,"x_max":0,"o":"m 640 314 l 306 314 l 306 315 l 104 0 l -14 0 l 613 986 l 1175 986 l 1175 889 l 786 889 l 786 556 l 1161 556 l 1161 458 l 786 458 l 786 97 l 1175 97 l 1175 0 l 640 0 m 640 411 l 640 839 l 367 411 "},"ï":{"ha":361,"x_min":0,"x_max":0,"o":"m 111 681 l 250 681 l 250 0 l 111 0 m -39 903 b 42 983 -39 947 -3 983 b 122 903 86 983 122 947 b 42 822 122 858 86 822 b -39 903 -3 822 -39 858 m 239 903 b 319 983 239 947 275 983 b 400 903 364 983 400 947 b 319 822 400 858 364 822 b 239 903 275 822 239 858 "},"ò":{"ha":806,"x_min":0,"x_max":0,"o":"m 403 72 b 604 340 535 72 604 185 b 403 608 604 494 535 608 b 201 340 271 608 201 494 b 403 72 201 185 271 72 m 56 340 b 403 701 56 540 199 701 b 750 340 607 701 750 540 b 403 -21 750 140 607 -21 b 56 340 199 -21 56 140 m 300 1043 l 517 865 l 478 807 l 233 944 "},"à":{"ha":739,"x_min":0,"x_max":0,"o":"m 503 413 b 340 613 503 524 468 613 b 163 504 256 613 207 572 l 85 546 b 371 701 143 653 243 701 b 642 424 528 701 642 604 l 642 0 l 510 0 l 503 104 b 293 -21 468 44 421 -21 b 56 169 154 -21 56 56 b 475 403 56 322 179 403 l 503 403 m 503 331 l 475 331 b 192 183 256 331 192 263 b 321 68 192 113 242 68 b 503 257 404 68 503 146 m 267 1043 l 483 865 l 444 807 l 200 944 "},"ˆ":{"ha":764,"x_min":0,"x_max":0,"o":"m 382 1036 l 599 865 l 560 807 l 382 911 l 204 807 l 165 865 "},"â":{"ha":739,"x_min":0,"x_max":0,"o":"m 503 413 b 340 613 503 524 468 613 b 163 504 256 613 207 572 l 85 546 b 371 701 143 653 243 701 b 642 424 528 701 642 604 l 642 0 l 510 0 l 503 104 b 293 -21 468 44 421 -21 b 56 169 154 -21 56 56 b 475 403 56 322 179 403 l 503 403 m 503 331 l 475 331 b 192 183 256 331 192 263 b 321 68 192 113 242 68 b 503 257 404 68 503 146 m 369 1036 l 586 865 l 547 807 l 369 911 l 192 807 l 153 865 "},"À":{"ha":943,"x_min":0,"x_max":0,"o":"m 418 986 l 531 986 l 915 0 l 758 0 l 636 314 l 267 314 l 143 0 l 35 0 m 304 411 l 597 411 l 451 800 m 368 1349 l 585 1171 l 546 1113 l 301 1250 "},"Ã":{"ha":943,"x_min":0,"x_max":0,"o":"m 418 986 l 531 986 l 915 0 l 758 0 l 636 314 l 267 314 l 143 0 l 35 0 m 304 411 l 597 411 l 451 800 m 508 1247 b 560 1228 522 1238 540 1228 b 643 1293 588 1228 610 1250 l 699 1250 b 535 1128 651 1169 600 1128 b 458 1150 496 1128 472 1140 l 435 1167 b 383 1186 421 1176 403 1186 b 300 1121 356 1186 333 1164 l 244 1164 b 408 1286 292 1244 343 1286 b 485 1264 447 1286 471 1274 "},"Õ":{"ha":1128,"x_min":0,"x_max":0,"o":"m 69 494 b 563 1007 69 778 272 1007 b 1058 494 856 1007 1058 778 b 563 -21 1058 208 856 -21 b 69 494 272 -21 69 208 m 563 78 b 907 494 763 78 907 247 b 563 908 907 736 758 908 b 222 494 371 908 222 736 b 563 78 222 247 367 78 m 600 1247 b 651 1228 614 1238 632 1228 b 735 1293 679 1228 701 1250 l 790 1250 b 626 1128 743 1169 692 1128 b 550 1150 588 1128 564 1140 l 526 1167 b 475 1186 513 1176 494 1186 b 392 1121 447 1186 425 1164 l 336 1164 b 500 1286 383 1244 435 1286 b 576 1264 539 1286 563 1274 "},"œ":{"ha":1293,"x_min":0,"x_max":0,"o":"m 750 324 b 951 72 754 158 838 72 b 1139 149 1021 72 1092 100 l 1194 83 b 953 -21 1131 19 1047 -21 b 676 113 835 -21 738 31 b 403 -21 615 31 518 -21 b 56 340 199 -21 56 140 b 403 701 56 540 199 701 b 675 569 517 701 613 650 b 936 701 733 650 824 701 b 1244 354 1126 701 1244 554 b 1242 324 1244 354 1244 333 l 750 324 m 403 72 b 604 328 531 72 600 179 l 604 340 l 604 351 b 403 608 600 500 531 608 b 201 340 271 608 201 494 b 403 72 201 185 271 72 m 932 613 b 753 403 833 613 768 538 l 1106 403 b 932 613 1092 538 1031 613 "},"Œ":{"ha":1539,"x_min":0,"x_max":0,"o":"m 907 118 b 563 -21 821 32 703 -21 b 69 494 272 -21 69 208 b 563 1007 69 778 272 1007 b 907 868 703 1007 821 954 l 907 986 l 1442 986 l 1442 889 l 1053 889 l 1053 556 l 1428 556 l 1428 458 l 1053 458 l 1053 97 l 1442 97 l 1442 0 l 907 0 m 563 78 b 907 476 757 78 900 239 l 907 494 b 563 908 907 736 758 908 b 222 494 371 908 222 736 b 563 78 222 247 367 78 "},"ä":{"ha":739,"x_min":0,"x_max":0,"o":"m 503 413 b 340 613 503 524 468 613 b 163 504 256 613 207 572 l 85 546 b 371 701 143 653 243 701 b 642 424 528 701 642 604 l 642 0 l 510 0 l 503 104 b 293 -21 468 44 421 -21 b 56 169 154 -21 56 56 b 475 403 56 322 179 403 l 503 403 m 503 331 l 475 331 b 192 183 256 331 192 263 b 321 68 192 113 242 68 b 503 257 404 68 503 146 m 150 903 b 231 983 150 947 186 983 b 311 903 275 983 311 947 b 231 822 311 858 275 822 b 150 903 186 822 150 858 m 428 903 b 508 983 428 947 464 983 b 589 903 553 983 589 947 b 508 822 589 858 553 822 b 428 903 464 822 428 858 "},"ã":{"ha":739,"x_min":0,"x_max":0,"o":"m 503 413 b 340 613 503 524 468 613 b 163 504 256 613 207 572 l 85 546 b 371 701 143 653 243 701 b 642 424 528 701 642 604 l 642 0 l 510 0 l 503 104 b 293 -21 468 44 421 -21 b 56 169 154 -21 56 56 b 475 403 56 322 179 403 l 503 403 m 503 331 l 475 331 b 192 183 256 331 192 263 b 321 68 192 113 242 68 b 503 257 404 68 503 146 m 407 942 b 458 922 421 932 439 922 b 542 988 486 922 508 944 l 597 944 b 433 822 550 864 499 822 b 357 844 394 822 371 835 l 333 861 b 282 881 319 871 301 881 b 199 815 254 881 232 858 l 143 858 b 307 981 190 939 242 981 b 383 958 346 981 369 968 "},"è":{"ha":744,"x_min":0,"x_max":0,"o":"m 201 324 b 403 72 206 158 289 72 b 590 149 472 72 543 100 l 646 83 b 404 -21 582 19 499 -21 b 56 340 197 -21 56 142 b 388 701 56 539 188 701 b 696 354 578 701 696 554 b 693 324 696 354 696 333 m 383 613 b 204 403 285 613 219 538 l 557 403 b 383 613 543 538 482 613 m 297 1043 l 514 865 l 475 807 l 231 944 "},"ê":{"ha":744,"x_min":0,"x_max":0,"o":"m 201 324 b 403 72 206 158 289 72 b 590 149 472 72 543 100 l 646 83 b 404 -21 582 19 499 -21 b 56 340 197 -21 56 142 b 388 701 56 539 188 701 b 696 354 578 701 696 554 b 693 324 696 354 696 333 m 383 613 b 204 403 285 613 219 538 l 557 403 b 383 613 543 538 482 613 m 372 1036 l 589 865 l 550 807 l 372 911 l 194 807 l 156 865 "},"ë":{"ha":744,"x_min":0,"x_max":0,"o":"m 201 324 b 403 72 206 158 289 72 b 590 149 472 72 543 100 l 646 83 b 404 -21 582 19 499 -21 b 56 340 197 -21 56 142 b 388 701 56 539 188 701 b 696 354 578 701 696 554 b 693 324 696 354 696 333 m 383 613 b 204 403 285 613 219 538 l 557 403 b 383 613 543 538 482 613 m 153 903 b 233 983 153 947 189 983 b 314 903 278 983 314 947 b 233 822 314 858 278 822 b 153 903 189 822 153 858 m 431 903 b 511 983 431 947 467 983 b 592 903 556 983 592 947 b 511 822 592 858 556 822 b 431 903 467 822 431 858 "},"î":{"ha":361,"x_min":0,"x_max":0,"o":"m 111 681 l 250 681 l 250 0 l 111 0 m 181 1036 l 397 865 l 358 807 l 181 911 l 3 807 l -36 865 "},"ô":{"ha":806,"x_min":0,"x_max":0,"o":"m 403 72 b 604 340 535 72 604 185 b 403 608 604 494 535 608 b 201 340 271 608 201 494 b 403 72 201 185 271 72 m 56 340 b 403 701 56 540 199 701 b 750 340 607 701 750 540 b 403 -21 750 140 607 -21 b 56 340 199 -21 56 140 m 403 1036 l 619 865 l 581 807 l 403 911 l 225 807 l 186 865 "},"ö":{"ha":806,"x_min":0,"x_max":0,"o":"m 403 72 b 604 340 535 72 604 185 b 403 608 604 494 535 608 b 201 340 271 608 201 494 b 403 72 201 185 271 72 m 56 340 b 403 701 56 540 199 701 b 750 340 607 701 750 540 b 403 -21 750 140 607 -21 b 56 340 199 -21 56 140 m 183 903 b 264 983 183 947 219 983 b 344 903 308 983 344 947 b 264 822 344 858 308 822 b 183 903 219 822 183 858 m 461 903 b 542 983 461 947 497 983 b 622 903 586 983 622 947 b 542 822 622 858 586 822 b 461 903 497 822 461 858 "},"ù":{"ha":819,"x_min":0,"x_max":0,"o":"m 236 268 b 403 83 236 157 306 83 b 569 268 486 83 569 157 l 569 681 l 708 681 l 708 0 l 569 0 l 569 114 b 358 -14 529 36 451 -14 b 97 257 221 -14 97 69 l 97 681 l 236 681 m 307 1043 l 524 865 l 485 807 l 240 944 "},"û":{"ha":819,"x_min":0,"x_max":0,"o":"m 236 268 b 403 83 236 157 306 83 b 569 268 486 83 569 157 l 569 681 l 708 681 l 708 0 l 569 0 l 569 114 b 358 -14 529 36 451 -14 b 97 257 221 -14 97 69 l 97 681 l 236 681 m 410 1036 l 626 865 l 588 807 l 410 911 l 232 807 l 193 865 "},"Â":{"ha":943,"x_min":0,"x_max":0,"o":"m 418 986 l 531 986 l 915 0 l 758 0 l 636 314 l 267 314 l 143 0 l 35 0 m 304 411 l 597 411 l 451 800 m 471 1342 l 688 1171 l 649 1113 l 471 1217 l 293 1113 l 254 1171 "},"Ê":{"ha":757,"x_min":0,"x_max":0,"o":"m 125 986 l 660 986 l 660 889 l 271 889 l 271 556 l 646 556 l 646 458 l 271 458 l 271 97 l 660 97 l 660 0 l 125 0 m 379 1342 l 596 1171 l 557 1113 l 379 1217 l 201 1113 l 163 1171 "},"Á":{"ha":943,"x_min":0,"x_max":0,"o":"m 418 986 l 531 986 l 915 0 l 758 0 l 636 314 l 267 314 l 143 0 l 35 0 m 304 411 l 597 411 l 451 800 m 640 1250 l 396 1113 l 357 1171 l 574 1349 "},"Ë":{"ha":757,"x_min":0,"x_max":0,"o":"m 125 986 l 660 986 l 660 889 l 271 889 l 271 556 l 646 556 l 646 458 l 271 458 l 271 97 l 660 97 l 660 0 l 125 0 m 160 1208 b 240 1289 160 1253 196 1289 b 321 1208 285 1289 321 1253 b 240 1128 321 1164 285 1128 b 160 1208 196 1128 160 1164 m 438 1208 b 518 1289 438 1253 474 1289 b 599 1208 563 1289 599 1253 b 518 1128 599 1164 563 1128 b 438 1208 474 1128 438 1164 "},"È":{"ha":757,"x_min":0,"x_max":0,"o":"m 125 986 l 660 986 l 660 889 l 271 889 l 271 556 l 646 556 l 646 458 l 271 458 l 271 97 l 660 97 l 660 0 l 125 0 m 276 1349 l 493 1171 l 454 1113 l 210 1250 "},"Í":{"ha":396,"x_min":0,"x_max":0,"o":"m 125 986 l 271 986 l 271 0 l 125 0 m 368 1250 l 124 1113 l 85 1171 l 301 1349 "},"Î":{"ha":396,"x_min":0,"x_max":0,"o":"m 125 986 l 271 986 l 271 0 l 125 0 m 199 1342 l 415 1171 l 376 1113 l 199 1217 l 21 1113 l -18 1171 "},"Ï":{"ha":396,"x_min":0,"x_max":0,"o":"m 125 986 l 271 986 l 271 0 l 125 0 m -21 1208 b 60 1289 -21 1253 15 1289 b 140 1208 104 1289 140 1253 b 60 1128 140 1164 104 1128 b -21 1208 15 1128 -21 1164 m 257 1208 b 338 1289 257 1253 293 1289 b 418 1208 382 1289 418 1253 b 338 1128 418 1164 382 1128 b 257 1208 293 1128 257 1164 "},"Ì":{"ha":396,"x_min":0,"x_max":0,"o":"m 125 986 l 271 986 l 271 0 l 125 0 m 96 1349 l 313 1171 l 274 1113 l 29 1250 "},"Ó":{"ha":1128,"x_min":0,"x_max":0,"o":"m 69 494 b 563 1007 69 778 272 1007 b 1058 494 856 1007 1058 778 b 563 -21 1058 208 856 -21 b 69 494 272 -21 69 208 m 563 78 b 907 494 763 78 907 247 b 563 908 907 736 758 908 b 222 494 371 908 222 736 b 563 78 222 247 367 78 m 733 1250 l 489 1113 l 450 1171 l 667 1349 "},"Ô":{"ha":1128,"x_min":0,"x_max":0,"o":"m 69 494 b 563 1007 69 778 272 1007 b 1058 494 856 1007 1058 778 b 563 -21 1058 208 856 -21 b 69 494 272 -21 69 208 m 563 78 b 907 494 763 78 907 247 b 563 908 907 736 758 908 b 222 494 371 908 222 736 b 563 78 222 247 367 78 m 564 1342 l 781 1171 l 742 1113 l 564 1217 l 386 1113 l 347 1171 "},"Ò":{"ha":1128,"x_min":0,"x_max":0,"o":"m 69 494 b 563 1007 69 778 272 1007 b 1058 494 856 1007 1058 778 b 563 -21 1058 208 856 -21 b 69 494 272 -21 69 208 m 563 78 b 907 494 763 78 907 247 b 563 908 907 736 758 908 b 222 494 371 908 222 736 b 563 78 222 247 367 78 m 461 1349 l 678 1171 l 639 1113 l 394 1250 "},"Ú":{"ha":958,"x_min":0,"x_max":0,"o":"m 257 381 b 500 90 257 214 347 90 b 743 381 653 90 743 214 l 743 986 l 854 986 l 854 374 b 482 -21 854 151 718 -21 b 111 374 246 -21 111 151 l 111 986 l 257 986 m 649 1250 l 404 1113 l 365 1171 l 582 1349 "},"Û":{"ha":958,"x_min":0,"x_max":0,"o":"m 257 381 b 500 90 257 214 347 90 b 743 381 653 90 743 214 l 743 986 l 854 986 l 854 374 b 482 -21 854 151 718 -21 b 111 374 246 -21 111 151 l 111 986 l 257 986 m 479 1342 l 696 1171 l 657 1113 l 479 1217 l 301 1113 l 263 1171 "},"Ù":{"ha":958,"x_min":0,"x_max":0,"o":"m 257 381 b 500 90 257 214 347 90 b 743 381 653 90 743 214 l 743 986 l 854 986 l 854 374 b 482 -21 854 151 718 -21 b 111 374 246 -21 111 151 l 111 986 l 257 986 m 376 1349 l 593 1171 l 554 1113 l 310 1250 "},"Ä":{"ha":943,"x_min":0,"x_max":0,"o":"m 418 986 l 531 986 l 915 0 l 758 0 l 636 314 l 267 314 l 143 0 l 35 0 m 304 411 l 597 411 l 451 800 m 251 1208 b 332 1289 251 1253 288 1289 b 413 1208 376 1289 413 1253 b 332 1128 413 1164 376 1128 b 251 1208 288 1128 251 1164 m 529 1208 b 610 1289 529 1253 565 1289 b 690 1208 654 1289 690 1253 b 610 1128 690 1164 654 1128 b 529 1208 565 1128 529 1164 "},"É":{"ha":757,"x_min":0,"x_max":0,"o":"m 125 986 l 660 986 l 660 889 l 271 889 l 271 556 l 646 556 l 646 458 l 271 458 l 271 97 l 660 97 l 660 0 l 125 0 m 549 1250 l 304 1113 l 265 1171 l 482 1349 "},"Ñ":{"ha":1021,"x_min":0,"x_max":0,"o":"m 896 0 l 746 0 l 236 779 l 236 0 l 125 0 l 125 986 l 275 986 l 785 207 l 785 986 l 896 986 m 547 1247 b 599 1228 561 1238 579 1228 b 682 1293 626 1228 649 1250 l 738 1250 b 574 1128 690 1169 639 1128 b 497 1150 535 1128 511 1140 l 474 1167 b 422 1186 460 1176 442 1186 b 339 1121 394 1186 372 1164 l 283 1164 b 447 1286 331 1244 382 1286 b 524 1264 486 1286 510 1274 "},"Ö":{"ha":1128,"x_min":0,"x_max":0,"o":"m 69 494 b 563 1007 69 778 272 1007 b 1058 494 856 1007 1058 778 b 563 -21 1058 208 856 -21 b 69 494 272 -21 69 208 m 563 78 b 907 494 763 78 907 247 b 563 908 907 736 758 908 b 222 494 371 908 222 736 b 563 78 222 247 367 78 m 344 1208 b 425 1289 344 1253 381 1289 b 506 1208 469 1289 506 1253 b 425 1128 506 1164 469 1128 b 344 1208 381 1128 344 1164 m 622 1208 b 703 1289 622 1253 658 1289 b 783 1208 747 1289 783 1253 b 703 1128 783 1164 747 1128 b 622 1208 658 1128 622 1164 "},"Ü":{"ha":958,"x_min":0,"x_max":0,"o":"m 257 986 l 111 986 l 111 374 b 482 -21 111 151 246 -21 b 854 374 718 -21 854 151 l 854 986 l 743 986 l 743 381 b 500 90 743 214 653 90 b 257 381 347 90 257 214 m 260 1208 b 340 1289 260 1253 296 1289 b 421 1208 385 1289 421 1253 b 340 1128 421 1164 385 1128 b 260 1208 296 1128 260 1164 m 538 1208 b 618 1289 538 1253 574 1289 b 699 1208 663 1289 699 1253 b 618 1128 699 1164 663 1128 b 538 1208 574 1128 538 1164 "},"¸":{"ha":764,"x_min":0,"x_max":0,"o":"m 382 38 l 449 -3 l 399 -89 b 442 -78 399 -89 421 -78 b 581 -187 524 -78 581 -122 b 381 -328 581 -275 490 -328 b 208 -271 290 -328 242 -300 l 251 -212 b 374 -253 288 -240 325 -253 b 465 -193 429 -253 465 -228 b 414 -147 465 -158 443 -147 b 357 -171 390 -147 369 -158 l 289 -128 "},"æ":{"ha":1185,"x_min":0,"x_max":0,"o":"m 517 413 b 340 613 517 524 468 613 b 163 504 256 613 207 572 l 85 546 b 371 701 143 653 243 701 b 589 601 464 701 542 667 b 828 701 649 663 731 701 b 1136 354 1018 701 1136 554 b 1133 324 1136 354 1136 333 l 642 324 b 843 72 646 158 729 72 b 1031 149 913 72 983 100 l 1086 83 b 844 -21 1022 19 939 -21 b 565 113 726 -21 628 31 b 293 -21 524 43 415 -21 b 56 169 154 -21 56 56 b 489 403 56 322 179 403 l 517 403 m 517 331 l 489 331 b 192 183 256 331 192 263 b 321 68 192 113 242 68 b 517 257 404 68 517 146 m 824 613 b 644 403 725 613 660 538 l 997 403 b 824 613 983 538 922 613 "},"?":{"ha":594,"x_min":0,"x_max":0,"o":"m 169 69 b 260 160 169 119 210 160 b 350 69 310 160 350 119 b 260 -21 350 19 310 -21 b 169 69 210 -21 169 19 m 549 747 b 443 528 549 639 494 569 b 307 372 386 481 311 449 l 301 282 l 218 282 l 213 372 b 340 586 206 489 282 536 b 415 747 383 622 415 674 b 265 904 415 843 353 904 b 100 778 186 904 125 849 l 14 806 b 285 1007 44 906 136 1007 b 549 747 436 1007 549 890 "},"ﬁ":{"ha":864,"x_min":0,"x_max":0,"o":"m 35 681 l 160 681 l 160 750 b 400 1035 160 943 257 1035 b 503 1015 433 1035 471 1026 l 476 931 b 411 943 458 938 435 943 b 299 750 346 943 299 897 l 299 681 l 479 681 l 479 590 l 299 590 l 299 0 l 160 0 l 160 590 l 35 590 m 614 681 l 753 681 l 753 0 l 614 0 m 593 944 b 683 1035 593 994 633 1035 b 774 944 733 1035 774 994 b 683 854 774 894 733 854 b 593 944 633 854 593 894 "},"ﬂ":{"ha":864,"x_min":0,"x_max":0,"o":"m 35 681 l 160 681 l 160 750 b 400 1035 160 943 257 1035 b 503 1015 433 1035 471 1026 l 476 931 b 411 943 458 938 435 943 b 299 750 346 943 299 897 l 299 681 l 479 681 l 479 590 l 299 590 l 299 0 l 160 0 l 160 590 l 35 590 m 614 1014 l 753 1014 l 753 0 l 614 0 "},"Ø":{"ha":1128,"x_min":0,"x_max":0,"o":"m 69 494 b 71 536 69 508 69 522 b 563 1007 89 800 286 1007 l 564 1007 l 565 1007 b 817 940 660 1007 744 982 l 901 1060 l 986 1000 l 899 878 b 989 764 935 844 964 807 b 1014 713 999 747 1007 731 b 1040 638 1025 688 1033 663 l 1044 617 b 1051 578 1047 604 1050 590 b 1054 557 1053 571 1054 564 b 1058 494 1057 536 1058 515 b 1057 451 1058 479 1057 465 b 1049 390 1056 431 1053 410 l 1044 369 b 1035 331 1042 357 1039 343 b 1007 257 1026 306 1018 281 b 989 222 1001 244 994 233 b 565 -21 906 75 754 -21 l 564 -21 l 563 -21 b 310 46 468 -21 382 3 l 228 -71 l 143 -11 l 228 108 b 139 222 193 142 163 179 b 106 293 126 244 115 268 b 93 331 100 306 97 318 b 78 390 88 350 82 369 b 72 431 75 403 74 417 l 69 472 l 69 494 m 576 78 b 700 108 621 79 663 90 b 906 494 824 167 906 308 b 824 769 906 603 875 699 l 376 139 b 563 78 429 100 492 78 l 565 78 m 339 813 b 329 803 336 810 333 806 b 222 494 263 729 222 621 b 303 214 222 382 251 285 l 750 846 l 722 864 b 686 883 711 871 699 878 l 674 888 b 563 908 639 901 601 908 l 550 908 b 393 857 493 906 439 888 b 339 813 374 844 356 829 "},"ø":{"ha":806,"x_min":0,"x_max":0,"o":"m 56 340 b 403 701 56 540 199 701 b 583 653 471 701 532 683 l 636 726 l 701 681 l 646 603 b 750 340 711 536 750 443 b 403 -21 750 140 607 -21 b 232 22 339 -21 281 -6 l 179 -51 l 114 -7 l 168 69 b 56 340 97 135 56 232 m 201 340 b 239 169 201 274 214 214 l 521 565 b 403 608 490 592 450 608 b 201 340 271 608 201 494 m 403 72 b 604 340 535 72 604 185 b 572 499 604 401 593 456 l 292 107 b 403 72 322 85 358 72 "},"[":{"ha":424,"x_min":0,"x_max":0,"o":"m 125 1076 l 382 1076 l 382 986 l 243 986 l 243 -97 l 382 -97 l 382 -187 l 125 -187 "},"]":{"ha":424,"x_min":0,"x_max":0,"o":"m 299 -187 l 42 -187 l 42 -97 l 181 -97 l 181 986 l 42 986 l 42 1076 l 299 1076 "},":":{"ha":389,"x_min":0,"x_max":0,"o":"m 104 69 b 194 160 104 119 144 160 b 285 69 244 160 285 119 b 194 -21 285 19 244 -21 b 104 69 144 -21 104 19 m 104 597 b 194 688 104 647 144 688 b 285 597 244 688 285 647 b 194 507 285 547 244 507 b 104 597 144 507 104 547 "},";":{"ha":389,"x_min":0,"x_max":0,"o":"m 104 597 b 194 688 104 647 144 688 b 285 597 244 688 285 647 b 194 507 285 547 244 507 b 104 597 144 507 104 547 m 97 69 b 194 160 97 119 138 160 b 292 38 253 160 292 115 b 151 -200 292 -51 239 -144 l 114 -143 b 210 -14 160 -112 201 -69 b 179 -18 201 -17 188 -18 b 97 69 138 -18 97 19 "},"’":{"ha":292,"x_min":0,"x_max":0,"o":"m 49 917 b 146 1007 49 967 89 1007 b 243 885 204 1007 243 963 b 103 647 243 796 190 703 l 65 704 b 161 833 111 735 153 778 b 131 829 153 831 139 829 b 49 917 89 829 49 867 "},"‘":{"ha":292,"x_min":0,"x_max":0,"o":"m 243 738 b 146 647 243 688 203 647 b 49 769 88 647 49 692 b 189 1007 49 858 101 951 l 226 950 b 131 821 181 919 139 876 b 161 825 139 824 153 825 b 243 738 203 825 243 788 "},"“":{"ha":514,"x_min":0,"x_max":0,"o":"m 465 738 b 368 647 465 688 425 647 b 271 769 310 647 271 692 b 411 1007 271 858 324 951 l 449 950 b 353 821 403 919 361 876 b 383 825 361 824 375 825 b 465 738 425 825 465 788 m 243 738 b 146 647 243 688 203 647 b 49 769 88 647 49 692 b 189 1007 49 858 101 951 l 226 950 b 131 821 181 919 139 876 b 161 825 139 824 153 825 b 243 738 203 825 243 788 "},"”":{"ha":514,"x_min":0,"x_max":0,"o":"m 49 917 b 146 1007 49 967 89 1007 b 243 885 204 1007 243 963 b 103 647 243 796 190 703 l 65 704 b 161 833 111 735 153 778 b 131 829 153 831 139 829 b 49 917 89 829 49 867 m 271 917 b 368 1007 271 967 311 1007 b 465 885 426 1007 465 963 b 325 647 465 796 413 703 l 288 704 b 383 833 333 735 375 778 b 353 829 375 831 361 829 b 271 917 311 829 271 867 "},"'":{"ha":235,"x_min":0,"x_max":0,"o":"m 179 986 l 156 707 l 79 707 l 56 986 "},"\"":{"ha":400,"x_min":0,"x_max":0,"o":"m 179 986 l 156 707 l 79 707 l 56 986 m 344 986 l 321 707 l 244 707 l 221 986 "},"¿":{"ha":594,"x_min":0,"x_max":0,"o":"m 425 611 b 335 521 425 561 385 521 b 244 611 285 521 244 561 b 335 701 244 661 285 701 b 425 611 385 701 425 661 m 46 -67 b 310 -326 46 -210 158 -326 b 581 -125 458 -326 550 -225 l 494 -97 b 329 -224 469 -168 408 -224 b 179 -67 242 -224 179 -162 b 254 94 179 7 211 58 b 382 308 313 144 389 192 l 376 399 l 293 399 l 288 308 b 151 153 283 232 208 200 b 46 -67 100 111 46 42 "},"¡":{"ha":431,"x_min":0,"x_max":0,"o":"m 299 -306 l 132 -306 l 174 399 l 257 399 m 306 611 b 215 521 306 561 265 521 b 125 611 165 521 125 561 b 215 701 125 661 165 701 b 306 611 265 701 306 661 "},"·":{"ha":375,"x_min":0,"x_max":0,"o":"m 97 382 b 188 472 97 432 138 472 b 278 382 238 472 278 432 b 188 292 278 332 238 292 b 97 382 138 292 97 332 "},"ß":{"ha":831,"x_min":0,"x_max":0,"o":"m 424 946 b 250 681 310 946 250 847 l 250 0 l 111 0 l 111 681 b 400 1035 111 908 243 1035 b 669 793 557 1035 669 944 b 494 501 669 614 494 586 b 567 400 494 451 521 421 b 761 189 663 356 761 311 b 535 -21 761 88 661 -21 b 313 119 418 -21 358 29 l 385 163 b 524 69 425 100 468 69 b 631 168 585 69 631 118 b 506 289 631 225 600 246 b 367 481 421 328 367 390 b 579 782 367 653 579 643 b 424 946 579 872 524 946 "},"/":{"ha":600,"x_min":0,"x_max":0,"o":"m 472 986 l 600 986 l 128 0 l 0 0 "},"\\":{"ha":600,"x_min":0,"x_max":0,"o":"m 600 0 l 472 0 l 0 986 l 128 986 "},"…":{"ha":1236,"x_min":0,"x_max":0,"o":"m 97 69 b 188 160 97 119 138 160 b 278 69 238 160 278 119 b 188 -21 278 19 238 -21 b 97 69 138 -21 97 19 m 528 69 b 618 160 528 119 568 160 b 708 69 668 160 708 119 b 618 -21 708 19 668 -21 b 528 69 568 -21 528 19 m 958 69 b 1049 160 958 119 999 160 b 1139 69 1099 160 1139 119 b 1049 -21 1139 19 1099 -21 b 958 69 999 -21 958 19 "},"&":{"ha":864,"x_min":0,"x_max":0,"o":"m 850 410 l 686 206 l 864 0 l 679 0 l 593 99 b 333 -21 526 32 444 -21 b 28 219 151 -21 28 75 b 235 515 28 364 126 433 b 99 782 168 594 99 690 b 357 1007 99 915 224 1007 b 588 782 490 1007 588 915 b 417 535 588 669 486 590 l 407 526 b 460 469 426 504 446 485 l 624 279 l 728 410 m 167 233 b 333 75 167 132 243 75 b 533 168 403 75 476 110 l 299 440 b 167 233 231 386 167 326 m 342 601 b 482 782 421 665 482 714 b 363 914 482 858 435 914 b 238 782 286 914 238 863 b 340 600 238 732 286 664 "},"(":{"ha":444,"x_min":0,"x_max":0,"o":"m 76 444 b 347 1081 76 694 190 911 l 417 1022 b 208 444 282 851 208 651 b 417 -133 208 238 282 38 l 347 -192 b 76 444 190 -22 76 194 "},")":{"ha":444,"x_min":0,"x_max":0,"o":"m 368 444 b 97 -192 368 194 254 -22 l 28 -133 b 236 444 163 38 236 238 b 28 1022 236 651 163 851 l 97 1081 b 368 444 254 911 368 694 "},"-":{"ha":472,"x_min":0,"x_max":0,"o":"m 63 428 l 410 428 l 410 339 l 63 339 "},"–":{"ha":875,"x_min":0,"x_max":0,"o":"m 90 428 l 785 428 l 785 339 l 90 339 "},"—":{"ha":1597,"x_min":0,"x_max":0,"o":"m 104 428 l 1493 428 l 1493 339 l 104 339 "},"_":{"ha":736,"x_min":0,"x_max":0,"o":"m 21 -97 l 715 -97 l 715 -187 l 21 -187 "},"$":{"ha":776,"x_min":0,"x_max":0,"o":"m 343 1083 l 433 1083 l 433 976 b 693 786 563 960 642 883 l 617 738 b 433 876 574 806 511 861 l 433 549 l 446 544 b 707 251 601 481 707 385 b 433 -18 707 100 581 -1 l 433 -125 l 343 -125 l 343 -18 b 69 174 208 -3 121 75 l 144 222 b 343 81 188 151 260 94 l 343 435 l 326 443 b 85 706 179 506 85 586 b 343 976 85 850 200 960 m 571 225 b 433 394 571 299 525 349 l 433 83 b 571 225 508 101 571 157 m 219 728 b 343 586 219 665 267 622 l 343 875 b 219 728 271 857 219 800 "},"{":{"ha":486,"x_min":0,"x_max":0,"o":"m 222 444 b 319 288 276 431 319 360 l 319 28 b 444 -97 319 -42 375 -97 l 458 -97 l 458 -187 l 431 -187 b 201 42 282 -187 201 -97 l 201 260 b 63 399 201 350 153 399 l 63 490 b 201 629 153 490 201 539 l 201 847 b 431 1076 201 986 282 1076 l 458 1076 l 458 986 l 444 986 b 319 861 375 986 319 931 l 319 601 b 222 444 319 529 276 458 "},"}":{"ha":486,"x_min":0,"x_max":0,"o":"m 264 444 b 167 601 210 458 167 529 l 167 861 b 42 986 167 931 111 986 l 28 986 l 28 1076 l 56 1076 b 285 847 204 1076 285 986 l 285 629 b 424 490 285 539 333 490 l 424 399 b 285 260 333 399 285 350 l 285 42 b 56 -187 285 -97 204 -187 l 28 -187 l 28 -97 l 42 -97 b 167 28 111 -97 167 -42 l 167 288 b 264 444 167 360 210 431 "},"−":{"ha":819,"x_min":0,"x_max":0,"o":"m 90 428 l 729 428 l 729 339 l 90 339 "},"+":{"ha":819,"x_min":0,"x_max":0,"o":"m 456 703 l 456 428 l 729 428 l 729 339 l 456 339 l 456 64 l 364 64 l 364 339 l 90 339 l 90 428 l 364 428 l 364 703 "},"=":{"ha":764,"x_min":0,"x_max":0,"o":"m 63 567 l 701 567 l 701 478 l 63 478 m 63 289 l 701 289 l 701 200 l 63 200 "},"ˇ":{"ha":764,"x_min":0,"x_max":0,"o":"m 382 807 l 165 985 l 204 1043 l 382 943 l 560 1043 l 599 985 "},"*":{"ha":632,"x_min":0,"x_max":0,"o":"m 92 865 l 272 789 l 254 986 l 378 986 l 358 789 l 540 865 l 576 747 l 386 708 l 518 567 l 419 492 l 315 658 l 213 492 l 114 567 l 244 708 l 56 747 "},"¢":{"ha":694,"x_min":0,"x_max":0,"o":"m 364 121 b 56 479 178 142 56 293 b 364 838 56 665 178 817 l 364 944 l 454 944 l 454 838 b 653 744 529 828 600 797 l 597 678 b 454 743 553 711 507 736 l 454 214 b 594 281 506 222 550 246 l 649 210 b 454 121 589 157 528 129 l 454 14 l 364 14 m 193 479 b 364 219 193 347 265 246 l 364 739 b 193 479 265 711 193 610 "},"©":{"ha":1157,"x_min":0,"x_max":0,"o":"m 49 493 b 563 1007 49 776 279 1007 b 1076 493 846 1007 1076 776 b 563 -21 1076 210 846 -21 b 49 493 279 -21 49 210 m 138 493 b 563 68 138 258 328 68 b 988 493 797 68 988 258 b 563 918 988 728 797 918 b 138 493 328 918 138 728 m 751 690 b 564 763 701 735 636 763 b 306 494 422 763 306 642 b 564 224 306 344 413 224 b 751 296 636 224 701 251 l 715 342 b 572 294 671 307 626 294 b 399 494 481 294 399 368 b 572 692 399 617 483 692 b 717 646 631 692 672 678 "},"¶":{"ha":811,"x_min":0,"x_max":0,"o":"m 811 986 l 811 897 l 672 897 l 672 -264 l 581 -264 l 581 897 l 442 897 l 442 -264 l 350 -264 l 350 453 l 294 453 b 28 719 147 453 28 572 b 294 986 28 867 147 986 "},"¥":{"ha":860,"x_min":0,"x_max":0,"o":"m 193 456 l 354 456 l 44 958 l 203 958 l 458 560 l 701 958 l 815 958 l 514 456 l 665 456 l 665 367 l 507 367 l 507 275 l 665 275 l 665 186 l 507 186 l 507 0 l 361 0 l 361 186 l 193 186 l 193 275 l 361 275 l 361 367 l 193 367 "},"°":{"ha":476,"x_min":0,"x_max":0,"o":"m 35 782 b 238 986 35 894 126 986 b 442 782 350 986 442 894 b 238 579 442 671 350 579 b 35 782 126 579 35 671 m 124 782 b 238 668 124 718 174 668 b 353 782 301 668 353 718 b 238 897 353 846 301 897 b 124 782 174 897 124 846 "},"º":{"ha":689,"x_min":0,"x_max":0,"o":"m 97 739 b 344 986 97 881 204 986 b 592 739 485 986 592 881 b 344 492 592 597 485 492 b 97 739 204 492 97 597 m 344 575 b 461 739 421 575 461 646 b 344 903 461 831 421 903 b 228 739 269 903 228 831 b 344 575 228 646 269 575 "},"ª":{"ha":619,"x_min":0,"x_max":0,"o":"m 385 789 b 297 906 385 864 349 906 b 189 840 250 906 214 876 l 119 879 b 319 986 158 953 232 986 b 508 796 426 986 508 919 l 508 506 l 389 506 l 385 578 l 385 569 b 256 492 368 529 325 492 b 97 622 169 492 97 544 b 365 782 97 707 163 782 l 385 782 m 385 714 l 365 714 b 210 633 243 714 210 674 b 283 572 210 593 236 572 b 385 699 340 572 385 622 "},"˚":{"ha":764,"x_min":0,"x_max":0,"o":"m 219 918 b 381 1081 219 1007 292 1081 b 543 918 469 1081 543 1007 b 381 757 543 829 469 757 b 219 918 292 757 219 829 m 296 918 b 381 833 296 871 333 833 b 467 918 428 833 467 871 b 381 1004 467 965 428 1004 b 296 918 333 1004 296 965 "},"å":{"ha":739,"x_min":0,"x_max":0,"o":"m 503 413 b 340 613 503 524 468 613 b 163 504 256 613 207 572 l 85 546 b 371 701 143 653 243 701 b 642 424 528 701 642 604 l 642 0 l 510 0 l 503 104 b 293 -21 468 44 421 -21 b 56 169 154 -21 56 56 b 475 403 56 322 179 403 l 503 403 m 503 331 l 475 331 b 192 183 256 331 192 263 b 321 68 192 113 242 68 b 503 257 404 68 503 146 m 208 918 b 369 1081 208 1007 281 1081 b 532 918 458 1081 532 1007 b 369 757 532 829 458 757 b 208 918 281 757 208 829 m 285 918 b 369 833 285 871 322 833 b 456 918 417 833 456 871 b 369 1004 456 965 417 1004 b 285 918 322 1004 285 965 "},"Å":{"ha":943,"x_min":0,"x_max":0,"o":"m 418 986 l 531 986 l 915 0 l 758 0 l 636 314 l 267 314 l 143 0 l 35 0 m 304 411 l 597 411 l 451 800 m 310 1224 b 471 1386 310 1313 382 1386 b 633 1224 560 1386 633 1313 b 471 1063 633 1135 560 1063 b 310 1224 382 1063 310 1135 m 386 1224 b 471 1139 386 1176 424 1139 b 557 1224 518 1139 557 1176 b 471 1310 557 1271 518 1310 b 386 1224 424 1310 386 1271 "},"ƒ":{"ha":600,"x_min":0,"x_max":0,"o":"m 54 625 l 189 625 l 204 694 b 496 979 244 888 353 979 b 600 956 538 979 572 969 l 560 878 b 496 888 542 885 519 888 b 343 694 444 888 374 835 l 328 625 l 499 625 l 499 535 l 308 535 l 139 -264 l 0 -264 l 169 535 l 54 535 "},"@":{"ha":1310,"x_min":0,"x_max":0,"o":"m 992 -151 b 672 -242 899 -210 790 -242 b 69 361 339 -242 69 28 b 672 964 69 694 339 964 b 1233 361 1006 964 1233 708 b 946 1 1233 183 1165 1 b 749 142 817 1 738 83 l 740 128 b 540 15 701 61 626 15 b 333 271 411 15 333 126 b 654 685 333 481 457 685 b 825 569 736 685 813 636 l 825 568 l 851 672 l 964 672 l 867 169 b 974 85 854 106 901 85 b 1144 361 1100 85 1144 249 b 672 875 1144 651 956 875 b 158 361 389 875 158 644 b 672 -153 158 78 389 -153 b 944 -75 772 -153 865 -125 m 669 599 b 449 271 535 599 449 440 b 574 101 449 171 493 101 b 797 431 714 101 797 288 b 669 599 797 533 751 599 "},"£":{"ha":742,"x_min":0,"x_max":0,"o":"m 83 497 l 197 497 b 133 708 172 569 133 638 b 415 979 133 863 253 979 b 686 828 551 979 624 925 l 604 775 b 431 882 551 849 514 882 b 272 736 336 882 272 793 b 346 497 272 646 324 581 l 556 497 l 556 408 l 357 408 b 189 117 350 278 235 153 l 83 131 b 218 393 111 164 218 299 b 217 408 218 397 217 403 l 83 408 m 686 117 l 686 0 l 83 0 l 83 131 l 189 117 "},"«":{"ha":692,"x_min":0,"x_max":0,"o":"m 372 139 l 236 139 l 42 410 l 236 681 l 372 681 l 178 410 m 664 139 l 528 139 l 333 410 l 528 681 l 664 681 l 469 410 "},"»":{"ha":692,"x_min":0,"x_max":0,"o":"m 514 410 l 319 681 l 456 681 l 650 410 l 456 139 l 319 139 m 222 410 l 28 681 l 164 681 l 358 410 l 164 139 l 28 139 "},"‹":{"ha":400,"x_min":0,"x_max":0,"o":"m 372 139 l 236 139 l 42 410 l 236 681 l 372 681 l 178 410 "},"›":{"ha":400,"x_min":0,"x_max":0,"o":"m 222 410 l 28 681 l 164 681 l 358 410 l 164 139 l 28 139 "},"€":{"ha":865,"x_min":0,"x_max":0,"o":"m 56 613 l 156 613 b 619 979 213 824 399 979 b 824 936 690 979 760 964 l 781 846 b 633 872 736 864 689 872 b 307 613 490 872 356 772 l 668 613 l 625 524 l 289 524 b 288 479 288 508 288 494 b 289 432 288 463 288 447 l 582 432 l 539 343 l 307 343 b 633 86 356 183 488 86 b 781 113 689 86 736 94 l 824 22 b 619 -21 760 -6 690 -21 b 156 343 385 -21 208 132 l 56 343 l 56 432 l 140 432 b 139 479 139 447 139 463 b 140 524 139 494 139 508 l 56 524 "},"%":{"ha":1135,"x_min":0,"x_max":0,"o":"m 156 0 l 843 958 l 979 958 l 292 0 m 499 717 b 278 460 499 560 397 460 b 56 717 157 460 56 560 b 278 972 56 872 157 972 b 499 717 397 972 499 872 m 372 715 b 278 882 372 822 336 882 b 183 715 218 882 183 822 b 278 550 183 610 218 550 b 372 715 336 550 372 610 m 1079 243 b 858 -14 1079 86 978 -14 b 636 243 738 -14 636 86 b 858 499 636 399 738 499 b 1079 243 978 499 1079 399 m 953 242 b 858 408 953 349 917 408 b 764 242 799 408 764 349 b 858 76 764 136 799 76 b 953 242 917 76 953 136 "},"×":{"ha":767,"x_min":0,"x_max":0,"o":"m 190 642 l 385 447 l 578 640 l 640 578 l 447 385 l 642 190 l 576 125 l 382 319 l 189 126 l 126 189 l 319 382 l 125 576 "},"®":{"ha":722,"x_min":0,"x_max":0,"o":"m 69 694 b 361 986 69 856 200 986 b 653 694 522 986 653 856 b 361 403 653 533 522 403 b 69 694 200 403 69 533 m 125 694 b 361 458 125 565 232 458 b 597 694 490 458 597 565 b 361 931 597 824 490 931 b 125 694 232 931 125 824 m 258 840 l 346 840 b 450 756 406 840 450 807 b 397 679 450 719 431 693 l 492 549 l 426 549 l 340 669 l 314 669 l 314 549 l 258 549 m 314 803 l 314 707 l 346 707 b 394 756 376 707 394 729 b 346 803 394 782 376 803 "},"™":{"ha":1107,"x_min":0,"x_max":0,"o":"m 711 504 l 583 779 l 583 504 l 507 504 l 507 972 l 607 972 l 767 629 l 921 972 l 1025 972 l 1025 504 l 921 504 l 921 779 l 793 504 m 433 972 l 433 896 l 303 896 l 303 506 l 200 506 l 200 896 l 69 896 l 69 972 "},"÷":{"ha":819,"x_min":0,"x_max":0,"o":"m 90 428 l 729 428 l 729 339 l 90 339 m 319 133 b 410 224 319 183 360 224 b 500 133 460 224 500 183 b 410 43 500 83 460 43 b 319 133 360 43 319 83 m 319 633 b 410 724 319 683 360 724 b 500 633 460 724 500 683 b 410 543 500 583 460 543 b 319 633 360 543 319 583 "},"#":{"ha":985,"x_min":0,"x_max":0,"o":"m 151 719 l 335 719 l 411 986 l 511 986 l 435 719 l 663 719 l 739 986 l 839 986 l 763 719 l 929 719 l 929 606 l 731 606 l 668 381 l 833 381 l 833 267 l 636 267 l 561 0 l 461 0 l 536 267 l 308 267 l 233 0 l 133 0 l 208 267 l 56 267 l 56 381 l 240 381 l 303 606 l 151 606 m 340 381 l 568 381 l 631 606 l 403 606 "},"Ç":{"ha":975,"x_min":0,"x_max":0,"o":"m 449 -8 b 69 494 221 43 69 247 b 563 1007 69 778 290 1007 b 919 868 697 1007 822 956 l 858 792 b 576 897 767 864 689 897 b 222 494 393 897 222 736 b 576 89 222 247 389 89 b 856 193 681 89 767 118 b 917 117 857 194 917 117 b 563 -21 825 31 697 -21 b 532 -19 551 -21 542 -21 l 492 -89 b 535 -78 492 -89 514 -78 b 674 -187 617 -78 674 -122 b 474 -328 674 -275 583 -328 b 301 -271 383 -328 335 -300 l 344 -212 b 467 -253 381 -240 418 -253 b 558 -193 522 -253 558 -228 b 507 -147 558 -158 536 -147 b 450 -171 483 -147 463 -158 l 382 -128 "},"ç":{"ha":694,"x_min":0,"x_max":0,"o":"m 308 -8 b 56 340 154 33 56 174 b 407 701 56 540 197 701 b 653 606 501 701 589 669 l 597 539 b 417 607 543 581 486 607 b 193 340 293 607 193 494 b 417 74 193 186 293 74 b 594 142 486 74 540 99 l 649 71 b 407 -21 578 7 501 -21 l 390 -21 l 351 -89 b 394 -78 351 -89 374 -78 b 533 -187 476 -78 533 -122 b 333 -328 533 -275 443 -328 b 161 -271 243 -328 194 -300 l 204 -212 b 326 -253 240 -240 278 -253 b 418 -193 382 -253 418 -228 b 367 -147 418 -158 396 -147 b 310 -171 343 -147 322 -158 l 242 -128 "},"ﬀ":{"ha":1006,"x_min":0,"x_max":0,"o":"m 35 681 l 160 681 l 160 750 b 400 1035 160 943 257 1035 b 503 1015 433 1035 471 1026 l 476 931 b 411 943 458 938 435 943 b 299 750 346 943 299 897 l 299 681 l 479 681 l 479 590 l 299 590 l 299 0 l 160 0 l 160 590 l 35 590 m 538 681 l 663 681 l 663 750 b 903 1035 663 943 760 1035 b 1006 1015 936 1035 974 1026 l 979 931 b 914 943 961 938 938 943 b 801 750 849 943 801 897 l 801 681 l 982 681 l 982 590 l 801 590 l 801 0 l 663 0 l 663 590 l 538 590 "},"ﬃ":{"ha":1367,"x_min":0,"x_max":0,"o":"m 35 681 l 160 681 l 160 750 b 400 1035 160 943 257 1035 b 503 1015 433 1035 471 1026 l 476 931 b 411 943 458 938 435 943 b 299 750 346 943 299 897 l 299 681 l 479 681 l 479 590 l 299 590 l 299 0 l 160 0 l 160 590 l 35 590 m 538 681 l 663 681 l 663 750 b 903 1035 663 943 760 1035 b 1006 1015 936 1035 974 1026 l 979 931 b 914 943 961 938 938 943 b 801 750 849 943 801 897 l 801 681 l 982 681 l 982 590 l 801 590 l 801 0 l 663 0 l 663 590 l 538 590 m 1117 681 l 1256 681 l 1256 0 l 1117 0 m 1096 944 b 1186 1035 1096 994 1136 1035 b 1276 944 1236 1035 1276 994 b 1186 854 1276 894 1236 854 b 1096 944 1136 854 1096 894 "},"ﬄ":{"ha":1367,"x_min":0,"x_max":0,"o":"m 35 681 l 160 681 l 160 750 b 400 1035 160 943 257 1035 b 503 1015 433 1035 471 1026 l 476 931 b 411 943 458 938 435 943 b 299 750 346 943 299 897 l 299 681 l 479 681 l 479 590 l 299 590 l 299 0 l 160 0 l 160 590 l 35 590 m 538 681 l 663 681 l 663 750 b 903 1035 663 943 760 1035 b 1006 1015 936 1035 974 1026 l 979 931 b 914 943 961 938 938 943 b 801 750 849 943 801 897 l 801 681 l 982 681 l 982 590 l 801 590 l 801 0 l 663 0 l 663 590 l 538 590 m 1117 1014 l 1256 1014 l 1256 0 l 1117 0 "}}}
